<?xml version="1.0" encoding="UTF-8" standalone="no"?>
<!DOCTYPE svg PUBLIC "-//W3C//DTD SVG 1.1//EN" "http://www.w3.org/Graphics/SVG/1.1/DTD/svg11.dtd">
<svg width="100%" height="100%" viewBox="0 0 512 512" version="1.1" xmlns="http://www.w3.org/2000/svg" xmlns:xlink="http://www.w3.org/1999/xlink" xml:space="preserve" xmlns:serif="http://www.serif.com/" style="fill-rule:evenodd;clip-rule:evenodd;stroke-linejoin:round;stroke-miterlimit:2;">
    <g id="Background" transform="matrix(1,0,0,1,0,46)">
        <path d="M273.375,126.47C272.543,127.121 272.587,127.44 271.568,127.196C267.598,126.247 250.183,116.874 235.701,134.655C229.525,142.238 225.319,153.006 221.594,169.521C220.016,176.514 221.49,176.985 227.712,180.078C232.955,182.684 232.502,183.394 237.585,186.346C249.85,193.469 254.813,191.815 263.475,188.438C269.861,185.948 273.381,183.6 274.384,184.59C274.612,184.816 274.538,185.249 274.767,185.474C274.531,186.487 272.491,197.058 272.435,197.493C271.985,200.993 276.737,209.989 279.253,221.562C279.546,222.908 281.517,231.975 282.231,238.53C283.394,249.19 283.385,254.142 283.383,255.503C283.09,265.013 282.967,264.991 282.347,271.485C281.695,278.323 278.82,290.361 278.174,292.405C273.924,305.867 272.02,309.957 271.338,311.423C265.372,324.247 258.25,333.951 258.06,334.19C250.708,343.467 242.258,353.864 224.619,364.702C216.329,369.795 211.343,371.156 210.529,372.518C209.832,373.683 209.908,380.733 210.274,381.622C210.992,383.368 214.368,382.006 220.477,382.735C225.522,383.336 225.525,383.312 230.395,384.811C243.709,388.908 242.303,395.435 240.388,397.401C236.814,401.071 234.861,396.067 219.278,394.051C219.234,394.046 218.578,393.609 218.461,394.479C218.291,395.749 218.465,395.811 219.552,396.453C224.283,399.244 224.613,405.626 221.477,407.463C217.357,409.875 213.571,405.577 211.79,404.129C206.467,399.802 202.32,398.076 201.418,397.701C196.823,395.789 189.019,397.194 185.465,396.852C180.523,396.375 180.678,389.184 186.386,387.206C192.775,384.991 195.457,387.142 195.608,382.504C195.727,378.865 196.12,377.019 192.591,377.9C180.642,380.883 165.875,384.697 136.503,382.451C128.39,381.83 126.35,379.82 126.31,383.485C126.258,388.276 126.682,388.971 129.481,388.974C138.873,388.981 141.396,390.12 142.528,390.39C157.706,393.999 160.987,401.549 157.127,405.082C153.479,408.421 150.914,404.188 140.479,401.587C138.603,401.12 134.361,399.152 134.599,401.478C134.666,402.136 136.355,402.851 138.395,405.574C140.99,409.038 139.593,413.626 136.52,414.566C132.637,415.754 130.49,412.565 125.576,408.41C115.802,400.148 112.222,402.382 103.528,402.004C98.311,401.777 98.694,397.222 98.867,396.585C100.669,389.934 110.784,391.488 112.145,390.139C112.694,389.595 113.06,389.232 112.647,380.493C112.466,376.672 110.694,377.87 103.614,375.162C81.892,366.853 71.867,358.706 69.754,357.165C66.509,354.796 59.912,348.456 59.794,348.306C59.72,348.212 59.288,347.66 59.892,346.812C60.727,345.64 70.038,343.927 79.606,339.756C105.179,328.608 118.846,312.636 122.583,308.574C130.877,299.558 137.633,287.329 138.119,286.306C146.893,267.806 147.159,260.518 148.249,255.461C149.318,250.504 149.22,240.133 149.032,238.552C148.176,231.344 141.82,230.84 141.822,237.507C141.822,239.193 141.825,250.208 139.248,258.428C134.662,273.057 133.861,274.047 131.926,277.728C127.646,285.871 127.513,285.766 122.584,293.562C121.64,295.055 114.928,303.161 110.634,307.628C108.817,309.518 105.93,311.927 105.905,311.952C102.826,314.892 102.644,314.643 99.431,317.413C96.531,319.913 91.899,322.757 91.749,322.859C85.802,326.955 85.637,326.66 79.38,330.28C74.056,333.36 62.027,337.812 59.506,338.522C40.025,344.01 28.253,343.945 25.499,343.929C16.715,343.881 11.96,343.376 10.652,342.29C5.559,338.059 5.571,337.814 3.771,331.432C3.548,330.642 3.859,326.831 5.191,325.245C10.379,319.065 15.728,309.066 17.642,307.977C19.543,306.896 25.442,310.787 36.766,304.925C37.316,304.64 39.542,303.869 39.463,302.505C39.341,300.394 34.441,303.324 25.515,302.35C25.278,302.324 7.257,301.235 13.98,288.762C14.683,287.457 15.031,287.681 24.097,273.24C27.749,267.424 33.892,255.804 36.769,250.655C37.973,248.502 44.339,234.545 47.866,227.673C50.447,222.645 52.743,217.218 56.738,210.636C57.243,209.804 59.083,206.062 60.727,203.637C62.109,201.597 64.795,196.683 67.788,192.707C72.17,186.888 71.325,185.083 71.126,183.55C70.533,178.985 70.245,179.038 69.81,174.466C69.328,169.409 65.759,152.386 69.218,130.447C69.968,125.685 70.241,120.975 75.831,105.623C76.344,104.217 78.367,98.661 83.936,88.753C84.248,88.199 89.515,80.393 89.949,79.841C90.894,78.64 97.093,71.244 100.768,67.793C108.921,60.139 112.564,58.384 113.744,57.816C116.254,56.607 116.274,56.642 116.455,56.46C116.603,56.31 118.562,53.919 114.51,54.677C92.501,58.793 82.646,52.594 84.565,46.518C87.09,38.526 110.692,28.218 134.537,36.376C137.119,37.259 139.798,39.12 140.522,38.54C141.647,37.64 140.012,36.385 139.862,36.27C135.284,32.759 135.086,33.04 130.704,29.267C127.491,26.5 127.402,26.62 124.502,23.498C123.103,21.992 119.134,18.478 120.195,12.434C121.423,5.434 134.862,1.644 150.357,10.738C162.438,17.828 166.281,29.34 166.952,31.348C168.416,35.733 167.887,38.054 170.524,38.267C175.537,38.674 184.162,38.072 197.498,41.509C204.449,43.3 204.699,42.613 219.612,49.263C220.702,49.749 231.3,55.543 236.268,59.764C239.788,62.755 239.969,62.528 243.226,65.781C247.978,70.528 248.111,70.387 252.369,75.601C252.86,76.202 258.84,84.424 260.075,86.731C266.109,98.004 267.308,102.016 267.728,103.423C269.252,108.523 272.345,115.339 273.375,126.47Z" style="fill:rgb(26,26,26);fill-opacity:0.99;"/>
        <path d="M294.208,346.484C294.917,340.532 297.534,337.469 299.657,332.578C299.97,331.856 301.672,327.936 303.905,323.714C310.062,312.076 311.65,306.136 312.358,304.438C315.356,297.254 315.417,297.223 316.485,296.482C321.441,293.042 323.662,291.916 326.327,283.44C327.226,280.58 328.908,278.06 331.714,270.585C333.635,265.469 334.593,265.884 336.605,264.646C337.774,263.927 338.694,261.154 338.897,260.688C339.764,258.699 343.894,250.635 344.045,250.295C345.74,246.487 344.776,246.113 341.831,244.043C339.573,242.457 330.477,234.679 326.721,230.318C321.081,223.769 321.037,223.823 316.183,216.702C313.261,212.416 313.569,212.257 311.007,207.759C304.68,196.655 301.737,184.472 301.614,183.485C301.124,179.567 306.88,182.075 314.498,180.491C318.398,179.679 316.63,182.579 323.057,195.712C331.257,212.468 339.832,220.879 348.735,228.211C364.845,241.482 385.587,246.776 399.513,247.051C417.814,247.411 432.899,243.194 446.674,234.782C464.752,223.744 471.183,213.816 477.224,205.317C482.03,198.557 487.721,186.287 490.112,177.403C502.007,133.203 483.171,96.92 459.629,77.347C453.869,72.558 449.412,69.207 438.667,64.131C426.593,58.426 409.963,56.725 402.511,56.949C378.327,57.677 361.036,69.08 359.71,69.868C348.021,76.811 338.353,87.904 336.916,89.834C327.857,102.012 326.264,104.479 320.778,117.611C316.802,127.125 314.902,140.429 314.593,144.507C314.017,152.126 314.596,154.238 314.583,154.52C314.535,155.525 314.513,155.777 313.507,155.763C312.253,155.745 312.078,153.963 310.666,152.373C307.129,148.393 307.124,148.432 303.261,144.752C299.644,141.308 298.889,141.269 299.464,137.496C300.962,127.662 301.726,122.981 304.526,115.509C307.504,107.561 307.397,106.891 309.635,102.561C316.277,89.714 318.596,87.056 319.572,85.548C323.547,79.405 324.658,79.471 326.591,76.573C328.142,74.247 328.46,74.534 330.9,71.898C334.37,68.151 334.711,68.534 337.679,65.696C341.841,61.717 350.834,55.834 351.486,55.476C358.943,51.382 358.766,51.067 362.523,49.553C373.722,45.04 373.586,44.537 385.424,42.176C387.948,41.672 403.64,38.542 417.578,41.098C422.34,41.97 430.943,42.428 447.38,49.763C452.839,52.199 461.063,57.476 461.365,57.705C467.596,62.437 467.873,62.072 473.582,67.413C477.719,71.284 477.569,71.408 481.474,75.525C484.929,79.167 484.747,79.291 487.833,83.254C492.489,89.235 492.481,89.922 494.282,92.634C496.822,96.458 502.554,109.063 504.624,116.462C509.12,132.531 509.472,140.379 509.566,142.497C510.32,159.332 508.932,164.736 508.162,169.456C506.597,179.045 503.386,188.893 503.194,189.387C499.69,198.421 494.175,211.896 481.621,226.604C474.283,235.202 471.058,237.38 466.306,241.26C455.108,250.402 439.855,257.072 434.541,258.638C417.994,263.513 411.411,263.916 405.485,264.031C388.118,264.368 379.5,261.284 375.563,260.263C365.484,257.65 364.434,256.04 363,258.135C362.759,258.488 354.742,277.834 354.131,278.168C353.129,278.713 348.496,276.84 348.414,276.818C345.09,275.929 341.17,277.787 340.73,278.634C340.607,278.869 340.84,279.153 340.869,279.416C340.943,280.08 340.95,280.133 341.565,280.4C344.631,281.732 347.114,281.464 349.456,281.858C354.944,282.781 354.979,282.526 355.447,282.646C356.574,282.935 359.47,284.982 360.526,286.479C367.448,296.289 362.741,306.674 358.586,310.59C356.149,312.886 356.455,313.137 356.119,315.436C355.984,316.366 355.189,321.811 351.019,326.011C344.192,332.887 338.711,333 337.492,333.025C331.822,333.142 323.427,328.27 321.427,324.547C320.187,322.241 318.867,322.205 317.997,324.677C317.103,327.215 318.82,329.48 319.074,329.815C322.414,334.221 327.746,335.112 328.483,335.53C328.875,335.753 329.217,336.107 329.411,336.515C329.863,337.465 326.795,343.393 325.714,345.6C322.127,352.925 319.131,364.674 307.475,360.57C293.378,355.607 294.26,348.002 294.208,346.484Z" style="fill:rgb(25,25,25);fill-opacity:0.98;"/>
        <path d="M430.393,171.424C424.275,180.36 424.209,180.285 418.167,189.269C414.3,195.017 412.463,197.591 408.543,195.431C408.107,195.191 408.063,195.224 395.259,182.755C394.164,181.689 381.88,169.726 381.517,169.478C378.77,167.602 379.003,170.065 371.272,180.334C368.391,184.16 352.022,208.862 349.183,211.088C345.016,214.355 339.253,208.628 340.903,204.665C341.975,202.091 349.039,193.005 357.92,179.79C358.713,178.61 358.764,178.668 368.185,165.28C374.951,155.667 376.197,153.094 379.512,153.278C382.854,153.463 387.27,159.077 396.859,168.109C408.704,179.268 408.558,180.417 410.631,179.721C411.17,179.54 414.372,174.417 416.877,170.744C424.889,159.001 431.907,148.975 433.102,147.229C435.265,144.067 444.052,131.58 444.142,131.317C444.723,129.63 443.652,129.086 439.322,126.85C438.612,126.483 430.932,123.531 435.012,119.063C436.594,117.331 436.902,117.756 451.509,111.521C465.219,105.67 465.207,105.517 466.499,105.483C470.837,105.366 469.884,110.97 469.718,117.504C469.087,142.406 469.47,142.689 468.124,144.156C464.118,148.523 459.95,142.064 459.561,141.46C458.516,139.842 455.825,137.5 455.545,137.405C453.716,136.782 453.297,137.955 448.708,144.644C447.462,146.46 445.315,149.729 445.023,150.173C444.315,151.251 440.279,156.623 436.029,163.174C435.847,163.454 435.789,163.408 433.618,166.575C431.958,168.995 432.063,169.038 430.393,171.424Z" style="fill:rgb(25,25,25);"/>
        <path d="M273.401,134.764C281.816,137.72 282.644,138.699 290.52,143.47C293.841,145.481 303.64,154.23 306.116,157.853C306.837,158.908 312.889,167.188 313.2,171.512C313.389,174.143 309.861,174.204 309.494,174.211C300.241,174.371 300.253,174.165 288.502,174.549C286.504,174.615 277.735,174.901 263.527,174.006C256.622,173.572 246.914,174.084 245.471,174.16C241.857,174.35 241.871,174.306 239.457,174.288C236.486,174.265 236.646,174.889 235.409,175.693C229.869,172.764 227.329,174.224 228.09,170.424C229.202,164.875 232.667,151.952 237.25,144.341C239.543,140.535 242.515,134.664 251.565,131.734C258.096,129.62 267.346,132.801 273.401,134.764Z" style="fill:rgb(25,25,25);fill-opacity:1;"/>
        <path d="M292.095,252.764C294.565,257.277 305.829,266.999 308.723,268.003C311.443,268.947 313.14,266.631 319.545,267.135C321.811,267.314 324.333,268.607 324.704,269.352C325.62,271.192 324.362,272.992 323.352,275.439C322.136,278.381 322.025,278.312 321.008,281.354C318.603,288.55 317.847,288.841 313.283,291.021C308.459,293.325 310.319,294.943 307.765,299.633C304.213,306.156 305.635,306.745 302.311,313.404C298.697,320.644 298.774,320.719 298.193,321.108C297.612,321.497 297.079,321.854 289.454,320.879C288.497,320.757 281.177,319.821 277.718,318.101C274.11,316.307 278.559,314.972 284.819,295.595C285.743,292.736 290.876,276.846 290.632,258.498C290.611,256.906 290.133,253.906 290.456,253.478C290.542,253.364 290.573,253.428 292.095,252.764Z" style="fill:rgb(27,27,26);fill-opacity:0.96;"/>
        <path d="M199.482,116.519C200.196,117.185 203.909,120.648 206.505,126.498C206.606,126.725 207.616,129.002 207.392,129.463C206.704,130.876 206.163,130.147 205.272,128.874C203.032,125.675 200.522,121.864 194.411,123.106C181.924,125.643 180.488,150.273 192.719,156.044C194.565,156.915 199.154,157.72 201.668,155.839C204.224,153.926 204.23,153.066 205.201,153.837C206.511,154.877 205.53,155.13 204.641,156.544C199.329,164.993 194.694,167.091 193.552,167.608C190.347,169.059 183.705,172.248 173.804,166.059C170.082,163.732 162.221,155.595 162.079,142.506C162.022,137.279 161.977,129.518 168.939,119.848C172.37,115.083 181.71,108.501 191.417,111.762C192.686,112.189 194.741,112.504 199.482,116.519Z" style="fill:rgb(247,247,248);"/>
        <path d="M237.133,177.75C237.687,177.48 237.946,176.777 238.5,176.507C238.645,176.436 238.648,176.486 240.575,177.075C242.574,177.686 257.23,178.046 260.515,178.291C267.381,178.803 268.449,177.799 268.367,179.487C268.309,180.693 267.821,180.381 266.71,180.818C254.71,185.543 252.545,185.652 248.636,184.146C241.353,181.34 237.935,178.432 237.133,177.75Z" style="fill:rgb(29,29,29);"/>
        <path d="M250.806,147.046C250.689,146.936 249.754,146.237 249.592,145.473C249.325,144.213 250.068,143.372 250.191,143.233C253.063,139.984 259.117,144.159 255.979,146.996C253.865,148.907 251.453,147.334 250.806,147.046Z" style="fill:rgb(230,230,230);"/>
    </g>
</svg>
